<svg xmlns="http://www.w3.org/2000/svg" width="26.333" height="25.117" viewBox="0 0 26.333 25.117"><defs><style>.a{fill:#fff;}</style></defs><g transform="translate(-942.331 -1081.187)"><path class="a" d="M948.331,1104.859v.81a.636.636,0,0,0,1.272,0v-.753c-.131,0-.263,0-.392-.005C948.91,1104.9,948.617,1104.887,948.331,1104.859Z"/><path class="a" d="M962.138,1104.918h-.348v.751a.635.635,0,0,0,1.271,0v-.809c-.024,0-.05.008-.074.01A7.373,7.373,0,0,1,962.138,1104.918Z"/><path class="a" d="M967.8,1095.972h-3.49v-11.093a3.983,3.983,0,0,0-.8-2.8,2.822,2.822,0,0,0-2.2-.893,2.757,2.757,0,0,0-2.187.9,3.245,3.245,0,0,0-.711,1.731,2.628,2.628,0,0,0-2.037,2.559v1.118h5.257v-1.118a2.628,2.628,0,0,0-2-2.55,1.932,1.932,0,0,1,.409-.948,1.584,1.584,0,0,1,1.269-.476,1.641,1.641,0,0,1,1.3.486,2.818,2.818,0,0,1,.5,1.9l0,11.189H943.2a.784.784,0,0,0-.864.674v.673a.785.785,0,0,0,.864.674h.535c.068.262.152.561.257.907l.6,2.26a3.878,3.878,0,0,0,3.733,2.841c.278.026.563.042.856.05.125,0,.254,0,.381,0l.216,0h11.981a7.175,7.175,0,0,0,.826-.047l.072-.01a4.447,4.447,0,0,0,3.785-2.663l.983-3.345h.375c.023,0,.044,0,.067,0a.77.77,0,0,0,.8-.67v-.673A.785.785,0,0,0,967.8,1095.972Z"/></g></svg>