<svg xmlns="http://www.w3.org/2000/svg" width="48.11" height="48.11" viewBox="0 0 48.11 48.11">
  <g id="Group_82" data-name="Group 82" transform="translate(-1234.267 -1495.05)">
    <g id="Group_81" data-name="Group 81">
      <path id="Path_67" data-name="Path 67" d="M1246.646,1537.774v1.319a1.036,1.036,0,1,0,2.072,0v-1.227c-.214,0-.428,0-.639-.008C1247.589,1537.846,1247.112,1537.819,1246.646,1537.774Z" fill="#0d2953"/>
      <path id="Path_68" data-name="Path 68" d="M1269.142,1537.87h-.568v1.223a1.036,1.036,0,1,0,2.072,0v-1.317l-.121.016A12.149,12.149,0,0,1,1269.142,1537.87Z" fill="#0d2953"/>
      <path id="Path_69" data-name="Path 69" d="M1278.366,1523.293h-5.685v-18.074a6.487,6.487,0,0,0-1.3-4.56,4.592,4.592,0,0,0-3.591-1.454,4.487,4.487,0,0,0-3.563,1.46,5.278,5.278,0,0,0-1.158,2.819,4.283,4.283,0,0,0-3.319,4.17v1.822h8.565v-1.822a4.28,4.28,0,0,0-3.258-4.154,3.146,3.146,0,0,1,.665-1.545,2.582,2.582,0,0,1,2.068-.776,2.679,2.679,0,0,1,2.114.791,4.6,4.6,0,0,1,.81,3.094l-.005,18.229h-32.431a1.28,1.28,0,0,0-1.408,1.1v1.1a1.28,1.28,0,0,0,1.408,1.1h.873c.11.426.247.914.418,1.477l.986,3.683c1.179,3.407,3.4,4.368,6.082,4.628q.68.064,1.4.082c.2.005.413.005.621.007.117,0,.232,0,.351,0h1.267l17.272,0v0h.982a11.925,11.925,0,0,0,1.346-.076c.039,0,.078-.011.118-.016a7.249,7.249,0,0,0,6.167-4.339l1.6-5.45h.611c.038,0,.072-.005.11-.008a1.254,1.254,0,0,0,1.3-1.091v-1.1A1.281,1.281,0,0,0,1278.366,1523.293Z" fill="#0d2953"/>
    </g>
    <rect id="Rectangle_65" data-name="Rectangle 65" width="48.11" height="48.11" transform="translate(1234.267 1495.05)" fill="none"/>
  </g>
</svg>
