<svg xmlns="http://www.w3.org/2000/svg" width="48.11" height="48.11" viewBox="0 0 48.11 48.11">
  <g id="Group_84" data-name="Group 84" transform="translate(-999.053 -1495.05)">
    <rect id="Rectangle_66" data-name="Rectangle 66" width="48.11" height="48.11" transform="translate(999.054 1495.05)" fill="none"/>
    <g id="Group_83" data-name="Group 83">
      <path id="Path_70" data-name="Path 70" d="M1008.9,1524.316a3.551,3.551,0,0,0,2.534-1.033,3.4,3.4,0,0,0,0-4.975,3.547,3.547,0,0,0-2.534-1.033,3.521,3.521,0,0,0,0,7.041Z" fill="#0d2953"/>
      <path id="Path_71" data-name="Path 71" d="M1007.007,1528.859h36.351v-4.286a2.125,2.125,0,0,0-.729-1.672,3.521,3.521,0,0,0-1.843-.814l-25.463-2.487h-.171a1.612,1.612,0,0,0-1.629,1.629v4.973h-6.516q-1.629,0-1.629,1.329T1007.007,1528.859Z" fill="#0d2953"/>
      <path id="Path_72" data-name="Path 72" d="M1045.056,1531.888v-.232l-.044.006a1.734,1.734,0,0,0-1.707-1.526h-39.259v-8.875a1.442,1.442,0,1,0-2.884,0v18.606a.86.86,0,0,0,.861.869h1.187a.825.825,0,0,0,.836-.869v-6.227h38.126v6.227a.86.86,0,0,0,.861.869h1.187a.825.825,0,0,0,.836-.869v-7.979Z" fill="#0d2953"/>
    </g>
  </g>
</svg>
