<svg xmlns="http://www.w3.org/2000/svg" width="48.11" height="48.11" viewBox="0 0 48.11 48.11">
  <g id="Group_80" data-name="Group 80" transform="translate(-1341.374 -1495.05)">
    <path id="Path_65" data-name="Path 65" d="M1380.632,1521.375a1.673,1.673,0,0,0-.443.062l-1.68.463-1.745-4.252a3.81,3.81,0,0,0-3.258-2.184h-16.332a3.808,3.808,0,0,0-3.258,2.184l-1.743,4.246-1.66-.457a1.658,1.658,0,0,0-.442-.062,1.363,1.363,0,0,0-1.371,1.443v.99a1.772,1.772,0,0,0,1.77,1.77h.19l-.281.687a13.251,13.251,0,0,0-.834,4.222v8.446a1.772,1.772,0,0,0,1.77,1.77h2.312a1.772,1.772,0,0,0,1.77-1.77v-2.109h19.886v2.109a1.772,1.772,0,0,0,1.77,1.77h2.311a1.772,1.772,0,0,0,1.77-1.77v-8.445a13.255,13.255,0,0,0-.834-4.223l-.281-.687h.214a1.771,1.771,0,0,0,1.769-1.769v-.991A1.361,1.361,0,0,0,1380.632,1521.375Zm-27.19,3.242,2.64-6.43a2.29,2.29,0,0,1,1.953-1.31h14.609a2.288,2.288,0,0,1,1.954,1.31l2.64,6.43a.884.884,0,0,1-.878,1.31h-22.04A.883.883,0,0,1,1353.442,1524.617Zm5.893,8.134a.711.711,0,0,1-.708.708h-5.015a.711.711,0,0,1-.708-.708v-2.407a.711.711,0,0,1,.708-.708h5.015a.711.711,0,0,1,.708.708Zm18.393,0a.711.711,0,0,1-.708.708h-5.015a.711.711,0,0,1-.708-.708v-2.407a.711.711,0,0,1,.708-.708h5.015a.711.711,0,0,1,.708.708Z" fill="#0d2953"/>
    <path id="Path_66" data-name="Path 66" d="M1387.789,1540.828H1386.6a.86.86,0,0,1-.861-.868v-25.679a5.108,5.108,0,0,0-5.08-5.124h-30.591a5.108,5.108,0,0,0-5.081,5.124v25.679a.86.86,0,0,1-.861.868h-1.188a.859.859,0,0,1-.861-.868v-25.679a8,8,0,0,1,7.977-8.046h30.591a8,8,0,0,1,7.978,8.046v25.679a.825.825,0,0,1-.836.868Z" fill="#0d2953"/>
    <rect id="Rectangle_64" data-name="Rectangle 64" width="48.11" height="48.11" transform="translate(1341.374 1495.05)" fill="none"/>
  </g>
</svg>
