<svg xmlns="http://www.w3.org/2000/svg" width="28.569" height="21.232" viewBox="0 0 28.569 21.232"><defs><style>.a{fill:#fff;}</style></defs><g transform="translate(-1115.877 -135.1)"><path class="a" d="M1144,1106.734h-.729a.528.528,0,0,1-.528-.533V1090.44a3.136,3.136,0,0,0-3.119-3.145h-18.775a3.135,3.135,0,0,0-3.118,3.145V1106.2a.528.528,0,0,1-.529.533h-.729a.528.528,0,0,1-.528-.533V1090.44a4.912,4.912,0,0,1,4.9-4.938h18.775a4.912,4.912,0,0,1,4.9,4.938V1106.2a.507.507,0,0,1-.513.533Z" transform="translate(-0.066 -950.402)"/><path class="a" d="M1139.6,1094.794a1.024,1.024,0,0,0-.271.038l-1.032.284-1.071-2.609a2.336,2.336,0,0,0-2-1.34h-10.024a2.339,2.339,0,0,0-2,1.34l-1.069,2.606-1.019-.281a1.023,1.023,0,0,0-.271-.038.837.837,0,0,0-.842.886v.608a1.088,1.088,0,0,0,1.087,1.086h.116l-.173.421a8.179,8.179,0,0,0-.511,2.592v5.184a1.088,1.088,0,0,0,1.086,1.086h1.419a1.088,1.088,0,0,0,1.086-1.086v-1.3h12.205v1.3a1.089,1.089,0,0,0,1.087,1.086h1.418a1.088,1.088,0,0,0,1.086-1.086v-5.184a8.152,8.152,0,0,0-.511-2.592l-.173-.421h.131a1.088,1.088,0,0,0,1.087-1.086v-.608A.837.837,0,0,0,1139.6,1094.794Zm-16.687,1.99,1.62-3.946a1.4,1.4,0,0,1,1.2-.8h8.966a1.4,1.4,0,0,1,1.2.8l1.62,3.946a.542.542,0,0,1-.539.8h-13.526A.542.542,0,0,1,1122.918,1096.784Zm3.616,4.992a.436.436,0,0,1-.434.435h-3.078a.436.436,0,0,1-.434-.435V1100.3a.435.435,0,0,1,.434-.434h3.078a.435.435,0,0,1,.434.434Zm11.289,0a.436.436,0,0,1-.434.435h-3.078a.437.437,0,0,1-.435-.435V1100.3a.436.436,0,0,1,.435-.434h3.078a.436.436,0,0,1,.434.434Z" transform="translate(-0.066 -950.402)"/></g></svg>