<?xml version="1.0" encoding="utf-8"?>
<!-- Generator: Adobe Illustrator 23.0.3, SVG Export Plug-In . SVG Version: 6.00 Build 0)  -->
<!DOCTYPE svg PUBLIC "-//W3C//DTD SVG 1.1//EN" "http://www.w3.org/Graphics/SVG/1.1/DTD/svg11.dtd" [
	<!ENTITY ns_extend "http://ns.adobe.com/Extensibility/1.0/">
	<!ENTITY ns_ai "http://ns.adobe.com/AdobeIllustrator/10.0/">
	<!ENTITY ns_graphs "http://ns.adobe.com/Graphs/1.0/">
	<!ENTITY ns_vars "http://ns.adobe.com/Variables/1.0/">
	<!ENTITY ns_imrep "http://ns.adobe.com/ImageReplacement/1.0/">
	<!ENTITY ns_sfw "http://ns.adobe.com/SaveForWeb/1.0/">
	<!ENTITY ns_custom "http://ns.adobe.com/GenericCustomNamespace/1.0/">
	<!ENTITY ns_adobe_xpath "http://ns.adobe.com/XPath/1.0/">
]>
<svg version="1.1" id="Layer_1" xmlns:x="&ns_extend;" xmlns:i="&ns_ai;" xmlns:graph="&ns_graphs;"
	 xmlns="http://www.w3.org/2000/svg" xmlns:xlink="http://www.w3.org/1999/xlink" x="0px" y="0px" viewBox="0 0 34.69 34.69"
	 style="enable-background:new 0 0 34.69 34.69;" xml:space="preserve">
<style type="text/css">
	.st0{fill:#fff;}
</style>
<switch>
	<g i:extraneous="self">
		<g id="Group_78" transform="translate(150.109 4289.235)">
			<path id="Path_102" class="st0" d="M-125.02-4254.55v-13.48h4.45c0.22-1.72,0.43-3.37,0.66-5.15h-5.1c0-1.46-0.09-2.82,0.03-4.16
				c0.09-1.05,1.01-1.83,2.06-1.73c0.01,0,0.01,0,0.02,0c0.99-0.04,1.98-0.01,3.13-0.01c0-1.48,0.01-2.89-0.02-4.3
				c0-0.15-0.26-0.39-0.42-0.42c-2.26-0.43-4.6-0.24-6.76,0.56c-2.07,0.75-3.44,2.72-3.42,4.92c-0.07,1.65-0.01,3.31-0.01,5.08H-135
				v5.19c1.29,0,2.57,0.01,3.85-0.01c0.47-0.01,0.75,0.09,0.74,0.65c-0.02,4.18-0.02,8.36-0.03,12.54c0,0.06-0.05,0.12-0.13,0.31"/>
		</g>
	</g>
</switch>
</svg>
