<svg xmlns="http://www.w3.org/2000/svg" width="25.38" height="25.381" viewBox="0 0 25.38 25.381">
  <defs>
    <style>
      .cls-1 {
        fill: none;
      }

      .cls-2 {
        fill: #0d2953;
      }
    </style>
  </defs>
  <g id="Group_20" data-name="Group 20" transform="translate(-1183.259 -524.547)">
    <path id="Path_2" data-name="Path 2" class="cls-1" d="M1198.9,535.238l2-.055-9.757,10.186.052-1.908-1.212-.033-.112,4.144h3.913V546.36h-1.914L1201.8,536v1.83h1.212v-3.913l-4.144.112Z"/>
    <g id="Group_19" data-name="Group 19">
      <path id="Path_3" data-name="Path 3" class="cls-2" d="M1195.584,532.748a25.9,25.9,0,0,1-4.209,6.955.763.763,0,0,1-.582.269h0a.761.761,0,0,1-.582-.268c-.078-.09-.866-1.026-1.771-2.35V548.5h15.753V532.748Zm7.427,5.079H1201.8V536l-9.927,10.364h1.913v1.211h-3.912l.112-4.143,1.212.033-.053,1.908,9.758-10.186-2,.055-.033-1.212,4.144-.112Z"/>
      <path id="Path_4" data-name="Path 4" class="cls-2" d="M1195.26,530.441a4.468,4.468,0,0,0-8.935,0c0,3.535,4.468,8.766,4.468,8.766S1195.26,533.958,1195.26,530.441Zm-6.671-.267a2.2,2.2,0,1,1,2.2,2.2A2.2,2.2,0,0,1,1188.589,530.174Z"/>
    </g>
    <rect id="Rectangle_19" data-name="Rectangle 19" class="cls-1" width="25.381" height="25.381" transform="translate(1183.259 524.547)"/>
  </g>
</svg>
