<svg xmlns="http://www.w3.org/2000/svg" width="27.825" height="14.419" viewBox="0 0 27.825 14.419"><defs><style>.a{fill:#fff;}</style></defs><g transform="translate(-852.595 -1092.423)"><path class="a" d="M858.573,1099.615v1.263h15.867v-1.261a3.364,3.364,0,0,1,2.217-3.087,5.642,5.642,0,0,0-5.428-4.107h-9.447a5.643,5.643,0,0,0-5.428,4.107A3.362,3.362,0,0,1,858.573,1099.615Z"/><path class="a" d="M877.822,1097.222a2.6,2.6,0,0,0-2.6,2.525v2.025H857.791v-2.025a2.6,2.6,0,1,0-2.6,2.671c.046,0,.087,0,.133,0,0,0,0,1.443,0,1.469a2.113,2.113,0,0,0,2.113,2.113h.465v.61a.235.235,0,0,0,.235.235H859.7a.235.235,0,0,0,.234-.235V1106h13.139v.61a.235.235,0,0,0,.234.235h1.563a.235.235,0,0,0,.235-.235V1106h.464a2.113,2.113,0,0,0,2.113-2.113v-1.469l.137,0a2.6,2.6,0,1,0,0-5.2Z"/></g></svg>