<svg xmlns="http://www.w3.org/2000/svg" width="48.11" height="48.11" viewBox="0 0 48.11 48.11">
  <g id="Group_79" data-name="Group 79" transform="translate(-1122.16 -1495.05)">
    <g id="Group_78" data-name="Group 78">
      <path id="Path_63" data-name="Path 63" d="M1133.211,1529.229v2.058h25.852l0-2.055a5.48,5.48,0,0,1,3.612-5.029,9.192,9.192,0,0,0-8.844-6.692h-15.392a9.192,9.192,0,0,0-8.843,6.692A5.477,5.477,0,0,1,1133.211,1529.229Z" fill="#0d2953"/>
      <path id="Path_64" data-name="Path 64" d="M1164.572,1525.33a4.232,4.232,0,0,0-4.23,4.114l0,3.3h-28.4l0-3.3a4.232,4.232,0,1,0-4.23,4.353c.075,0,.143,0,.217-.006,0,0,0,2.352,0,2.4a3.443,3.443,0,0,0,3.443,3.442h.758v.993a.383.383,0,0,0,.382.383h2.546a.383.383,0,0,0,.383-.383v-.993h21.406v.993a.383.383,0,0,0,.383.383h2.546a.383.383,0,0,0,.382-.383v-.993h.757a3.442,3.442,0,0,0,3.442-3.442c0-.017,0-.034,0-.052v-2.343c.074,0,.148.006.223.006a4.234,4.234,0,1,0,0-8.467Z" fill="#0d2953"/>
    </g>
    <rect id="Rectangle_63" data-name="Rectangle 63" width="48.11" height="48.11" transform="translate(1122.16 1495.05)" fill="none"/>
  </g>
</svg>
