<svg xmlns="http://www.w3.org/2000/svg" width="7.267" height="5.452" viewBox="0 0 7.267 5.452">
  <defs>
    <style>
      .cls-1 {
        fill: #111;
      }
    </style>
  </defs>
  <g id="Group_39" data-name="Group 39" transform="translate(-474.851 -682.626)">
    <g id="Group_38" data-name="Group 38">
      <path id="Path_54" data-name="Path 54" class="cls-1" d="M478.269,685.863a.3.3,0,0,0,.424.015l.015-.015c.516-.464,2.265-1.95,3.263-2.795a.152.152,0,0,0,.022-.209.6.6,0,0,0-.475-.233h-6.056a.6.6,0,0,0-.475.233.151.151,0,0,0,.021.209C476,683.914,477.754,685.4,478.269,685.863Z"/>
      <path id="Path_55" data-name="Path 55" class="cls-1" d="M482.035,683.527a.15.15,0,0,0-.161.022c-.653.554-1.514,1.285-2.163,1.844a.151.151,0,0,0-.021.213.2.2,0,0,0,.021.02c.6.483,1.512,1.148,2.168,1.62a.153.153,0,0,0,.088.028.15.15,0,0,0,.069-.017.152.152,0,0,0,.082-.134v-3.458A.151.151,0,0,0,482.035,683.527Z"/>
      <path id="Path_56" data-name="Path 56" class="cls-1" d="M475.1,687.245c.657-.473,1.566-1.137,2.168-1.62a.152.152,0,0,0,.02-.213l-.02-.02c-.65-.559-1.51-1.29-2.164-1.844a.153.153,0,0,0-.161-.022.149.149,0,0,0-.087.138v3.458a.147.147,0,0,0,.082.134.149.149,0,0,0,.069.017A.155.155,0,0,0,475.1,687.245Z"/>
      <path id="Path_57" data-name="Path 57" class="cls-1" d="M479.439,685.792a.152.152,0,0,0-.2,0c-.137.119-.251.22-.332.293a.615.615,0,0,1-.846,0c-.081-.073-.2-.173-.332-.293a.152.152,0,0,0-.2,0c-.694.564-1.863,1.411-2.5,1.865a.152.152,0,0,0-.036.211l.013.015a.609.609,0,0,0,.443.2h6.056a.606.606,0,0,0,.443-.2.152.152,0,0,0,.04-.118.156.156,0,0,0-.063-.108C481.3,687.2,480.136,686.358,479.439,685.792Z"/>
    </g>
  </g>
</svg>
