<svg xmlns="http://www.w3.org/2000/svg" width="17.375" height="17.823" viewBox="0 0 17.375 17.823">
  <defs>
    <style>
      .cls-1 {
        fill: #203565;
      }
    </style>
  </defs>
  <g id="Group_13" data-name="Group 13" transform="translate(-1358.567 -22.414)">
    <g id="Group_12" data-name="Group 12">
      <path id="Path_1" data-name="Path 1" class="cls-1" d="M1372.167,27.326a4.912,4.912,0,0,0-9.825,0c0,3.888,4.912,9.64,4.912,9.64S1372.167,31.194,1372.167,27.326Zm-7.336-.293a2.424,2.424,0,1,1,2.424,2.424h0a2.423,2.423,0,0,1-2.423-2.423Z"/>
      <path id="Path_2" data-name="Path 2" class="cls-1" d="M1369.827,34.847c-.371.537-.719,1-1.009,1.378a12.737,12.737,0,0,1,5.462,1.256c-.821.542-3.262,1.3-7.025,1.3s-6.2-.762-7.025-1.3a12.735,12.735,0,0,1,5.457-1.255c-.291-.375-.639-.842-1.01-1.378-3.539.349-6.11,1.4-6.11,2.633,0,1.522,3.89,2.756,8.688,2.756s8.687-1.234,8.687-2.756C1375.943,36.243,1373.372,35.195,1369.827,34.847Z"/>
    </g>
  </g>
</svg>
