<svg xmlns="http://www.w3.org/2000/svg" width="4.371" height="7.717" viewBox="0 0 4.371 7.717">
  <defs>
    <style>
      .cls-1 {
        fill: #111;
      }
    </style>
  </defs>
  <path id="Path_58" data-name="Path 58" class="cls-1" d="M480.2,670.013h-3.247a.563.563,0,0,0-.562.562v6.593a.561.561,0,0,0,.56.562H480.2a.561.561,0,0,0,.562-.56v-6.595A.564.564,0,0,0,480.2,670.013Zm-2.424.342h1.6c.041,0,.074.061.074.135s-.033.136-.074.136h-1.6c-.041,0-.073-.061-.073-.136S477.735,670.355,477.776,670.355Zm.8,6.819a.358.358,0,1,1,.357-.359h0A.36.36,0,0,1,478.576,677.174Zm1.763-1.229h-3.526v-4.983h3.526Z" transform="translate(-476.391 -670.013)"/>
</svg>
