<?xml version="1.0" encoding="utf-8"?>
<!-- Generator: Adobe Illustrator 23.0.3, SVG Export Plug-In . SVG Version: 6.00 Build 0)  -->
<!DOCTYPE svg PUBLIC "-//W3C//DTD SVG 1.1//EN" "http://www.w3.org/Graphics/SVG/1.1/DTD/svg11.dtd" [
	<!ENTITY ns_extend "http://ns.adobe.com/Extensibility/1.0/">
	<!ENTITY ns_ai "http://ns.adobe.com/AdobeIllustrator/10.0/">
	<!ENTITY ns_graphs "http://ns.adobe.com/Graphs/1.0/">
	<!ENTITY ns_vars "http://ns.adobe.com/Variables/1.0/">
	<!ENTITY ns_imrep "http://ns.adobe.com/ImageReplacement/1.0/">
	<!ENTITY ns_sfw "http://ns.adobe.com/SaveForWeb/1.0/">
	<!ENTITY ns_custom "http://ns.adobe.com/GenericCustomNamespace/1.0/">
	<!ENTITY ns_adobe_xpath "http://ns.adobe.com/XPath/1.0/">
]>
<svg version="1.1" id="Layer_1" xmlns:x="&ns_extend;" xmlns:i="&ns_ai;" xmlns:graph="&ns_graphs;"
	 xmlns="http://www.w3.org/2000/svg" xmlns:xlink="http://www.w3.org/1999/xlink" x="0px" y="0px" viewBox="0 0 34.69 34.69"
	 style="enable-background:new 0 0 34.69 34.69;" xml:space="preserve">
<style type="text/css">
	.st0{fill:#fff;}
</style>
<switch>
	<g i:extraneous="self">
		<path id="Path_106" class="st0" d="M4.55,25.76c2.77,0.26,5.12-0.73,7.53-2.33c-2.2-0.16-4.14-1.51-5.04-3.53l2.11-0.2
			c-2.13-1.15-3.89-2.51-3.89-5.27l2,0.56C5.1,12.9,4.8,10.53,5.8,7.73c2.78,3.24,6.71,5.28,10.96,5.67
			c0.02-0.88,0.1-1.76,0.25-2.63c0.66-2.83,3.5-4.59,6.34-3.93c0.67,0.16,1.3,0.44,1.86,0.84c0.76,0.64,1.83,0.74,2.7,0.25
			c0.45-0.2,0.89-0.41,1.34-0.62l0.22,0.18l-2.03,2.62l2.68-0.7c-0.02,0.07-0.02,0.11-0.04,0.13c-0.93,0.82-1.74,1.78-2.4,2.83
			c-0.48,1.06-0.18,2.45-0.52,3.6c-1.69,5.83-5.11,10.1-11.23,11.6c-3.83,0.87-7.84,0.3-11.27-1.61
			C4.64,25.95,4.62,25.88,4.55,25.76z"/>
	</g>
</switch>
</svg>
