<?xml version="1.0" encoding="utf-8"?>
<!-- Generator: Adobe Illustrator 23.0.3, SVG Export Plug-In . SVG Version: 6.00 Build 0)  -->
<!DOCTYPE svg PUBLIC "-//W3C//DTD SVG 1.1//EN" "http://www.w3.org/Graphics/SVG/1.1/DTD/svg11.dtd" [
	<!ENTITY ns_extend "http://ns.adobe.com/Extensibility/1.0/">
	<!ENTITY ns_ai "http://ns.adobe.com/AdobeIllustrator/10.0/">
	<!ENTITY ns_graphs "http://ns.adobe.com/Graphs/1.0/">
	<!ENTITY ns_vars "http://ns.adobe.com/Variables/1.0/">
	<!ENTITY ns_imrep "http://ns.adobe.com/ImageReplacement/1.0/">
	<!ENTITY ns_sfw "http://ns.adobe.com/SaveForWeb/1.0/">
	<!ENTITY ns_custom "http://ns.adobe.com/GenericCustomNamespace/1.0/">
	<!ENTITY ns_adobe_xpath "http://ns.adobe.com/XPath/1.0/">
]>
<svg version="1.1" id="Layer_1" xmlns:x="&ns_extend;" xmlns:i="&ns_ai;" xmlns:graph="&ns_graphs;"
	 xmlns="http://www.w3.org/2000/svg" xmlns:xlink="http://www.w3.org/1999/xlink" x="0px" y="0px" viewBox="0 0 34.69 34.69"
	 style="enable-background:new 0 0 34.69 34.69;" xml:space="preserve">
<style type="text/css">
	.st0{fill:#fff;}
	.st1{fill:none;}
	.st2{fill:#203565;}
</style>
<switch>
	<g i:extraneous="self">
		<path id="Path_112" class="st0" d="M14.3,22.67c-0.48,0-0.97-0.02-1.45-0.08c-0.78-0.12-1.55-0.3-2.33-0.45
			c-0.12-0.02-0.24,0-0.35,0.05c-0.9,0.47-1.79,0.95-2.68,1.43c-0.08,0.04-0.16,0.08-0.29,0.14c0.18-0.55,0.34-1.04,0.5-1.53
			c0.11-0.32,0.21-0.64,0.34-0.95c0.08-0.14,0.04-0.32-0.1-0.4c-0.01-0.01-0.02-0.01-0.03-0.01c-1.26-0.83-2.26-1.99-2.88-3.36
			C3.8,14.9,4.31,11.83,6.31,9.78c1.5-1.68,3.56-2.77,5.79-3.05c2.29-0.4,4.65-0.03,6.71,1.05c2.09,1.02,3.64,2.87,4.29,5.11
			c0.03,0.11,0.05,0.21,0.08,0.32c0,0.03,0,0.06-0.01,0.09c-0.17,0-0.34,0-0.5,0c-2.06-0.08-4.09,0.53-5.76,1.73
			c-1.51,1.02-2.54,2.61-2.87,4.4c-0.17,0.95-0.11,1.93,0.15,2.86C14.22,22.39,14.25,22.49,14.3,22.67z M18.42,11.81
			c0.01-0.74-0.58-1.34-1.32-1.35c-0.72-0.01-1.31,0.56-1.32,1.28c0,0.02,0,0.04,0,0.06c-0.01,0.71,0.55,1.3,1.26,1.32
			C17.78,13.15,18.4,12.56,18.42,11.81L18.42,11.81z M10.57,10.46c-0.73,0.01-1.31,0.6-1.3,1.33c0,0.01,0,0.02,0,0.03
			c0,0.71,0.56,1.29,1.27,1.31c0.75,0.01,1.36-0.58,1.38-1.33C11.89,11.06,11.3,10.48,10.57,10.46z"/>
		<g>
			<path class="st1" d="M19.22,17.61c0.02-0.02,0.05-0.03,0.07-0.05C19.26,17.57,19.24,17.58,19.22,17.61z"/>
			<path class="st1" d="M20.37,17.37c0.38,0.16,0.66,0.53,0.68,0.97c0,0.59-0.48,1.06-1.07,1.06c-0.01,0-0.02,0-0.03,0
				c-0.18,0-0.34-0.06-0.48-0.13c0.15,0.08,0.31,0.14,0.49,0.14c0,0,0,0,0.01,0c0.59,0.02,1.08-0.44,1.1-1.03c0-0.01,0-0.02,0-0.03
				C21.04,17.9,20.76,17.53,20.37,17.37z"/>
			<path class="st1" d="M19.54,17.37c0.02-0.01,0.05-0.01,0.07-0.02C19.59,17.36,19.57,17.36,19.54,17.37z"/>
			<path class="st1" d="M18.92,18.34c0,0.01,0,0.03,0,0.04h0c0-0.07,0.02-0.13,0.03-0.2C18.95,18.23,18.92,18.28,18.92,18.34z"/>
			<path class="st1" d="M19,17.94c0.02-0.04,0.04-0.07,0.07-0.11C19.04,17.87,19.01,17.9,19,17.94z"/>
			<path class="st1" d="M25.2,17.29C25.2,17.29,25.2,17.29,25.2,17.29c0.59,0.03,1.05,0.51,1.06,1.1c-0.01,0.55-0.45,0.99-1,1.01
				c0.54-0.02,0.98-0.43,1-0.98c0-0.01,0-0.02,0-0.02C26.26,17.8,25.79,17.32,25.2,17.29z"/>
			<path class="st1" d="M24.78,19.31c0.13,0.06,0.27,0.09,0.42,0.09c0,0,0.01,0,0.01,0c-0.01,0-0.01,0-0.02,0
				C25.04,19.4,24.9,19.37,24.78,19.31z"/>
			<path class="st0" d="M30.2,19.3c-0.37-1.64-1.36-3.06-2.77-3.97c-1.93-1.33-4.31-1.83-6.62-1.39c-1.73,0.26-3.32,1.07-4.55,2.31
				c-2.17,2.09-2.42,5.48-0.58,7.87c0.82,1.08,1.91,1.91,3.16,2.42c1.98,0.83,4.19,0.94,6.25,0.32c0.2-0.07,0.42-0.05,0.6,0.05
				c0.66,0.35,1.32,0.71,1.98,1.06c0.08,0.04,0.17,0.08,0.32,0.16c-0.23-0.71-0.42-1.34-0.64-1.97c0,0,0-0.01-0.01-0.01
				c-0.09-0.18-0.02-0.4,0.16-0.49c1.36-0.93,2.33-2.33,2.7-3.94c0.05-0.22,0.08-0.45,0.13-0.67l0-1.06
				C30.29,19.76,30.25,19.52,30.2,19.3z M21.06,18.38c-0.02,0.59-0.51,1.05-1.1,1.03c0,0,0,0-0.01,0c-0.18,0-0.34-0.06-0.49-0.14
				c-0.32-0.17-0.55-0.5-0.55-0.89h0c0-0.01,0-0.03,0-0.04c0-0.06,0.02-0.11,0.03-0.16c0.01-0.08,0.02-0.16,0.04-0.23
				c0.02-0.04,0.04-0.07,0.07-0.11c0.04-0.08,0.09-0.16,0.15-0.23c0.02-0.02,0.05-0.03,0.07-0.05c0.08-0.07,0.16-0.13,0.26-0.18
				c0.02-0.01,0.05-0.01,0.07-0.02c0.09-0.03,0.19-0.07,0.29-0.08c0.01,0,0.02,0,0.03,0c0.15,0,0.29,0.04,0.42,0.09
				c0.39,0.16,0.67,0.53,0.69,0.98C21.06,18.36,21.06,18.37,21.06,18.38z M26.27,18.42c-0.02,0.55-0.47,0.96-1,0.98
				c-0.02,0-0.03,0.01-0.05,0.01c0,0,0,0-0.01,0c0,0-0.01,0-0.01,0c-0.15,0-0.29-0.04-0.42-0.09c-0.39-0.17-0.67-0.55-0.68-1
				c0.07-0.56,0.53-1,1.1-1.03c0,0,0,0,0,0c0,0,0,0,0,0c0,0,0,0-0.01,0l0.01,0c0,0,0,0,0,0c0.59,0.03,1.06,0.51,1.07,1.1
				C26.27,18.4,26.27,18.41,26.27,18.42z"/>
			<polygon class="st0" points="25.19,17.29 25.2,17.29 25.2,17.29 			"/>
			<path class="st2" d="M19.29,17.55c0.08-0.07,0.16-0.13,0.26-0.18C19.45,17.42,19.37,17.48,19.29,17.55z"/>
			<path class="st2" d="M19.06,17.84c0.04-0.08,0.09-0.16,0.15-0.23C19.15,17.67,19.11,17.75,19.06,17.84z"/>
			<path class="st2" d="M18.93,18.38L18.93,18.38c-0.01,0.39,0.22,0.72,0.54,0.89C19.15,19.09,18.93,18.77,18.93,18.38z"/>
			<path class="st2" d="M18.95,18.18c0.01-0.08,0.02-0.16,0.04-0.23C18.97,18.02,18.96,18.1,18.95,18.18z"/>
			<path class="st2" d="M20.37,17.37c-0.13-0.06-0.27-0.09-0.42-0.09c-0.01,0-0.02,0-0.03,0c-0.11,0.01-0.2,0.04-0.29,0.08
				c0.11-0.04,0.22-0.07,0.34-0.07C20.1,17.29,20.24,17.32,20.37,17.37z"/>
			<path class="st2" d="M25.21,19.41c0.02,0,0.04-0.01,0.05-0.01C25.24,19.4,25.22,19.41,25.21,19.41
				C25.21,19.41,25.21,19.41,25.21,19.41z"/>
			<path class="st2" d="M24.1,18.32c0.07-0.56,0.53-1,1.1-1.03c0,0,0,0,0,0C24.63,17.32,24.16,17.75,24.1,18.32
				c0.01,0.45,0.28,0.83,0.67,0.99C24.39,19.14,24.12,18.76,24.1,18.32z"/>
		</g>
	</g>
</switch>
</svg>
