<?xml version="1.0" encoding="utf-8"?>
<!-- Generator: Adobe Illustrator 23.0.3, SVG Export Plug-In . SVG Version: 6.00 Build 0)  -->
<!DOCTYPE svg PUBLIC "-//W3C//DTD SVG 1.1//EN" "http://www.w3.org/Graphics/SVG/1.1/DTD/svg11.dtd" [
	<!ENTITY ns_extend "http://ns.adobe.com/Extensibility/1.0/">
	<!ENTITY ns_ai "http://ns.adobe.com/AdobeIllustrator/10.0/">
	<!ENTITY ns_graphs "http://ns.adobe.com/Graphs/1.0/">
	<!ENTITY ns_vars "http://ns.adobe.com/Variables/1.0/">
	<!ENTITY ns_imrep "http://ns.adobe.com/ImageReplacement/1.0/">
	<!ENTITY ns_sfw "http://ns.adobe.com/SaveForWeb/1.0/">
	<!ENTITY ns_custom "http://ns.adobe.com/GenericCustomNamespace/1.0/">
	<!ENTITY ns_adobe_xpath "http://ns.adobe.com/XPath/1.0/">
]>
<svg version="1.1" id="Layer_1" xmlns:x="&ns_extend;" xmlns:i="&ns_ai;" xmlns:graph="&ns_graphs;"
	 xmlns="http://www.w3.org/2000/svg" xmlns:xlink="http://www.w3.org/1999/xlink" x="0px" y="0px" viewBox="0 0 34.69 34.69"
	 style="enable-background:new 0 0 34.69 34.69;" xml:space="preserve">
<style type="text/css">
	.st0{fill:#fff;}
</style>
<switch>
	<g i:extraneous="self">
		<g>
			<path class="st0" d="M27.7,12.26c0,0.45,0.37,0.82,0.82,0.82c0.45,0,0.82-0.37,0.82-0.82c0-2.55-2.08-4.63-4.63-4.63
				c-0.45,0-0.82,0.37-0.82,0.82c0,0.45,0.37,0.82,0.82,0.82C26.35,9.26,27.7,10.61,27.7,12.26z"/>
			<path class="st0" d="M24.16,3c-0.2,0-0.41,0.01-0.62,0.02c-0.6,0.04-1.06,0.56-1.02,1.16c0.04,0.6,0.56,1.05,1.16,1.02
				c0.16-0.01,0.32-0.02,0.47-0.02c3.91,0,7.08,3.18,7.08,7.08c0,0.48-0.05,0.95-0.14,1.42c-0.09,0.43,0.11,0.89,0.48,1.13
				c0.38,0.24,0.89,0.23,1.24-0.04c0.21-0.16,0.36-0.4,0.42-0.66c0.12-0.61,0.19-1.23,0.19-1.85C33.42,7.15,29.26,3,24.16,3z"/>
			<path class="st0" d="M26.61,15.84c0.77-1.49,0.85-2.88,0.22-3.96c-0.65-1.12-1.98-1.76-3.76-1.8c-1.31-0.03-2.79,0.27-4.28,0.85
				c0.51-1.75,0.35-3.14-0.49-3.98c-1.01-1.01-2.82-1.05-5.09-0.1c-2.12,0.88-4.44,2.53-6.55,4.64c-3.14,3.14-5.22,6.78-5.32,9.29
				c-0.04,0.25-0.06,0.5-0.06,0.74c0,2.25,1.58,4.33,4.44,5.87c2.75,1.48,6.4,2.3,10.27,2.3c3.87,0,7.52-0.82,10.27-2.3
				c2.86-1.54,4.44-3.63,4.44-5.87C30.69,19.36,29.25,17.36,26.61,15.84z M21.53,24.99c-0.38,0.3-0.79,0.56-1.22,0.81
				c0.01-0.01,0.03-0.01,0.04-0.02c-0.05,0.03-0.1,0.06-0.15,0.08c-0.09,0.05-0.18,0.1-0.27,0.15c-0.16,0.08-0.32,0.16-0.48,0.24
				c-0.09,0.04-0.18,0.08-0.27,0.13c-0.21,0.09-0.43,0.18-0.65,0.27c-0.04,0.02-0.08,0.03-0.12,0.05c-0.26,0.1-0.53,0.18-0.8,0.26
				c-0.09,0.03-0.18,0.05-0.26,0.07c-0.19,0.05-0.39,0.1-0.59,0.15c-0.1,0.02-0.2,0.05-0.31,0.07c-0.2,0.04-0.4,0.08-0.6,0.11
				c-0.09,0.02-0.19,0.03-0.28,0.05c-0.29,0.04-0.59,0.08-0.89,0.11c0,0,0,0,0,0c-0.44,0.04-0.88,0.06-1.31,0.06c0,0,0,0,0,0
				c0,0,0,0,0,0c-2.16,0-4.21-0.47-5.87-1.37c-2.06-1.11-3.29-2.75-3.45-4.6c-0.16-1.86,0.76-3.68,2.6-5.13
				c0.2-0.16,0.41-0.31,0.62-0.45c0.06-0.04,0.13-0.08,0.2-0.13c0.16-0.1,0.33-0.2,0.5-0.3c0.07-0.04,0.13-0.08,0.2-0.11
				c0.23-0.12,0.46-0.24,0.7-0.35c0,0,0,0-0.01,0c1.39-0.63,2.97-1.05,4.63-1.19c2.64-0.23,5.19,0.24,7.18,1.31
				c2.06,1.11,3.29,2.75,3.45,4.6C24.3,21.72,23.37,23.54,21.53,24.99z"/>
			<path class="st0" d="M12.83,16.68c-2.96,0.71-4.88,3.31-4.28,5.79c0.29,1.22,1.14,2.23,2.38,2.83c0.77,0.37,1.64,0.57,2.53,0.57
				c0.5,0,1.02-0.06,1.53-0.18c2.96-0.71,4.88-3.31,4.28-5.79C18.67,17.41,15.78,15.97,12.83,16.68z M12.44,24.25
				c-1.05,0-1.91-0.85-1.91-1.91c0-1.05,0.85-1.91,1.91-1.91s1.91,0.85,1.91,1.91C14.35,23.39,13.5,24.25,12.44,24.25z M15.98,21.52
				c-0.6,0-1.09-0.49-1.09-1.09c0-0.6,0.49-1.09,1.09-1.09s1.09,0.49,1.09,1.09C17.07,21.03,16.59,21.52,15.98,21.52z"/>
		</g>
	</g>
</switch>
</svg>
