<?xml version="1.0" encoding="utf-8"?>
<!-- Generator: Adobe Illustrator 23.0.3, SVG Export Plug-In . SVG Version: 6.00 Build 0)  -->
<!DOCTYPE svg PUBLIC "-//W3C//DTD SVG 1.1//EN" "http://www.w3.org/Graphics/SVG/1.1/DTD/svg11.dtd" [
	<!ENTITY ns_extend "http://ns.adobe.com/Extensibility/1.0/">
	<!ENTITY ns_ai "http://ns.adobe.com/AdobeIllustrator/10.0/">
	<!ENTITY ns_graphs "http://ns.adobe.com/Graphs/1.0/">
	<!ENTITY ns_vars "http://ns.adobe.com/Variables/1.0/">
	<!ENTITY ns_imrep "http://ns.adobe.com/ImageReplacement/1.0/">
	<!ENTITY ns_sfw "http://ns.adobe.com/SaveForWeb/1.0/">
	<!ENTITY ns_custom "http://ns.adobe.com/GenericCustomNamespace/1.0/">
	<!ENTITY ns_adobe_xpath "http://ns.adobe.com/XPath/1.0/">
]>
<svg version="1.1" id="Layer_1" xmlns:x="&ns_extend;" xmlns:i="&ns_ai;" xmlns:graph="&ns_graphs;"
	 xmlns="http://www.w3.org/2000/svg" xmlns:xlink="http://www.w3.org/1999/xlink" x="0px" y="0px" viewBox="0 0 34.69 34.69"
	 style="enable-background:new 0 0 34.69 34.69;" xml:space="preserve">
<style type="text/css">
	.st0{fill:#fff;}
	.st1{fill:#203565;}
</style>
<switch>
	<g i:extraneous="self">
		<path class="st0" d="M17.91,5.46L17.91,5.46L17.91,5.46c-6.79,0-12.31,5.52-12.31,12.31c0,2.69,0.87,5.19,2.34,7.22L6.4,29.56
			l4.73-1.51c1.95,1.29,4.27,2.03,6.77,2.03c6.79,0,12.31-5.52,12.31-12.31S24.7,5.46,17.91,5.46z"/>
		<path class="st1" d="M25.07,22.85c-0.3,0.84-1.48,1.53-2.42,1.74c-0.64,0.14-1.48,0.25-4.31-0.93c-3.62-1.5-5.95-5.18-6.13-5.41
			c-0.17-0.24-1.46-1.95-1.46-3.71s0.9-2.63,1.26-3c0.3-0.3,0.79-0.44,1.26-0.44c0.15,0,0.29,0.01,0.41,0.01
			c0.36,0.02,0.54,0.04,0.78,0.61c0.3,0.72,1.02,2.48,1.11,2.66c0.09,0.18,0.18,0.43,0.05,0.67c-0.12,0.25-0.22,0.36-0.4,0.56
			s-0.35,0.37-0.54,0.59c-0.17,0.2-0.35,0.4-0.14,0.77c0.21,0.35,0.93,1.53,2,2.48c1.37,1.22,2.49,1.61,2.89,1.78
			c0.3,0.12,0.65,0.09,0.87-0.14c0.28-0.3,0.62-0.79,0.96-1.27c0.25-0.35,0.56-0.39,0.88-0.27c0.33,0.12,2.09,0.98,2.45,1.16
			c0.36,0.18,0.6,0.27,0.69,0.42C25.37,21.29,25.37,22.01,25.07,22.85z"/>
	</g>
</switch>
</svg>
